<svg xmlns="http://www.w3.org/2000/svg" xmlns:xlink="http://www.w3.org/1999/xlink" width="500" zoomAndPan="magnify" viewBox="0 0 375 374.999991" height="500" preserveAspectRatio="xMidYMid meet" version="1.0"><defs><g/></defs><g fill="#ffffff" fill-opacity="1"><g transform="translate(96.243607, 174.603346)"><g><path d="M 14.945312 -21.296875 L 12.179688 -17.445312 L 5.925781 -26.234375 C 5.859375 -26.300781 5.695312 -26.332031 5.59375 -26.332031 L 0.394531 -26.332031 C 0.03125 -26.332031 -0.0976562 -26.070312 0.0664062 -25.839844 C 3.257812 -21.363281 6.515625 -16.886719 9.675781 -12.375 L 9.675781 -0.296875 C 9.675781 -0.164062 9.808594 0 10.039062 0 L 14.351562 0 C 14.546875 0 14.714844 -0.164062 14.714844 -0.296875 L 14.714844 -12.375 L 21.066406 -21.296875 Z M 14.945312 -21.296875 "/></g></g></g><g fill="#ffffff" fill-opacity="1"><g transform="translate(121.980707, 174.603346)"><g><path d="M 20.671875 -0.394531 L 10.664062 -26.136719 C 10.566406 -26.398438 10.105469 -26.398438 10.007812 -26.136719 L 0.03125 -0.394531 C -0.0664062 -0.199219 0.0664062 0 0.363281 0 L 4.871094 0 C 5.003906 0 5.167969 -0.0664062 5.199219 -0.199219 L 10.335938 -14.878906 L 15.535156 -0.199219 C 15.570312 -0.0664062 15.734375 0 15.832031 0 L 20.375 0 C 20.605469 0 20.769531 -0.199219 20.671875 -0.394531 Z M 20.671875 -0.394531 "/></g></g></g><g fill="#ffffff" fill-opacity="1"><g transform="translate(147.322868, 174.603346)"><g><path d="M 23.566406 -6.351562 L 28.570312 -6.351562 L 28.570312 -26.035156 C 28.570312 -26.167969 28.4375 -26.332031 28.207031 -26.332031 L 23.863281 -26.332031 C 23.730469 -26.332031 23.566406 -26.234375 23.5 -26.136719 L 14.515625 -6.847656 L 5.070312 -26.136719 C 5.035156 -26.234375 4.839844 -26.332031 4.738281 -26.332031 L 0.328125 -26.332031 C 0.0976562 -26.332031 0 -26.167969 0 -26.035156 L 0 -0.296875 C 0 -0.164062 0.0976562 0 0.328125 0 L 4.675781 0 C 4.871094 0 5.035156 -0.164062 5.035156 -0.296875 L 5.035156 -15.074219 L 12.179688 -1.25 C 12.210938 -1.152344 12.410156 -1.054688 12.507812 -1.054688 L 16.558594 -1.054688 C 16.65625 -1.054688 16.820312 -1.152344 16.851562 -1.25 L 23.566406 -14.714844 Z M 23.566406 -6.351562 "/></g></g></g><g fill="#ffffff" fill-opacity="1"><g transform="translate(180.958618, 174.603346)"><g><path d="M 10.730469 -4.507812 L 8.097656 -4.507812 L 8.097656 -26.332031 L 3.0625 -26.332031 L 3.0625 -4.507812 L 0.363281 -4.507812 C 0.164062 -4.507812 0 -4.378906 0 -4.214844 L 0 -0.296875 C 0 -0.164062 0.164062 0 0.363281 0 L 10.730469 0 C 10.960938 0 11.09375 -0.164062 11.09375 -0.296875 L 11.09375 -4.214844 C 11.09375 -4.378906 10.960938 -4.507812 10.730469 -4.507812 Z M 10.730469 -4.507812 "/></g></g></g><g fill="#ffffff" fill-opacity="1"><g transform="translate(196.229997, 174.603346)"><g><path d="M 12.082031 -14.613281 C 10.203125 -15.503906 8.359375 -15.503906 8.195312 -15.503906 C 6.515625 -15.503906 4.90625 -16.492188 4.90625 -18.398438 C 4.90625 -20.507812 6.386719 -21.59375 8.195312 -21.59375 C 9.90625 -21.59375 11.355469 -20.703125 11.421875 -18.828125 C 11.421875 -18.730469 11.585938 -18.566406 11.785156 -18.566406 L 15.898438 -18.566406 C 16.128906 -18.566406 16.292969 -18.730469 16.261719 -18.828125 C 16.195312 -23.304688 12.707031 -26.332031 8.195312 -26.332031 C 3.984375 -26.332031 0 -23.335938 0 -18.398438 C 0 -15.339844 1.546875 -13 4.277344 -11.75 C 6.1875 -10.863281 7.964844 -10.863281 8.195312 -10.863281 C 9.675781 -10.796875 11.488281 -9.613281 11.488281 -7.667969 C 11.488281 -5.925781 9.941406 -4.738281 8.195312 -4.738281 C 8.195312 -4.738281 8.195312 -4.738281 8.164062 -4.738281 L 8.164062 0 C 8.195312 0 8.195312 0 8.195312 0 C 12.410156 0 16.359375 -2.730469 16.359375 -7.667969 C 16.359375 -10.761719 14.84375 -13.332031 12.082031 -14.613281 Z M 12.082031 -14.613281 "/></g></g></g><g fill="#ffffff" fill-opacity="1"><g transform="translate(217.030433, 174.603346)"><g><path d="M 20.671875 -0.394531 L 10.664062 -26.136719 C 10.566406 -26.398438 10.105469 -26.398438 10.007812 -26.136719 L 0.03125 -0.394531 C -0.0664062 -0.199219 0.0664062 0 0.363281 0 L 4.871094 0 C 5.003906 0 5.167969 -0.0664062 5.199219 -0.199219 L 10.335938 -14.878906 L 15.535156 -0.199219 C 15.570312 -0.0664062 15.734375 0 15.832031 0 L 20.375 0 C 20.605469 0 20.769531 -0.199219 20.671875 -0.394531 Z M 20.671875 -0.394531 "/></g></g></g><g fill="#ffffff" fill-opacity="1"><g transform="translate(242.372591, 174.603346)"><g><path d="M 20.078125 -21.492188 L 20.078125 -26.035156 C 20.078125 -26.167969 19.945312 -26.332031 19.714844 -26.332031 L 15.4375 -26.332031 C 8.886719 -26.332031 0 -24.421875 0 -13.167969 C 0 -1.480469 8.984375 0 15.4375 0 L 19.714844 0 C 19.945312 0 20.078125 -0.164062 20.078125 -0.296875 L 20.078125 -16.425781 L 9.972656 -16.425781 L 9.972656 -11.390625 L 15.042969 -11.390625 L 15.042969 -4.804688 C 9.316406 -4.507812 5.070312 -6.914062 5.070312 -13.167969 C 5.070312 -21.296875 11.851562 -21.625 15.042969 -21.492188 Z M 20.078125 -21.492188 "/></g></g></g><g fill="#ffffff" fill-opacity="1"><g transform="translate(267.089443, 174.603346)"><g><path d="M 10.730469 -4.507812 L 8.097656 -4.507812 L 8.097656 -26.332031 L 3.0625 -26.332031 L 3.0625 -4.507812 L 0.363281 -4.507812 C 0.164062 -4.507812 0 -4.378906 0 -4.214844 L 0 -0.296875 C 0 -0.164062 0.164062 0 0.363281 0 L 10.730469 0 C 10.960938 0 11.09375 -0.164062 11.09375 -0.296875 L 11.09375 -4.214844 C 11.09375 -4.378906 10.960938 -4.507812 10.730469 -4.507812 Z M 10.730469 -4.507812 "/></g></g></g><path stroke-linecap="butt" transform="matrix(-0.746252, 0, 0, -0.75, 304.549907, 134.068028)" fill="none" stroke-linejoin="miter" d="M -0.00117165 5.002163 L 84.43118 5.002163 " stroke="#ffffff" stroke-width="10" stroke-opacity="1" stroke-miterlimit="4"/><path stroke-linecap="butt" transform="matrix(0, -0.745878, 0.75, 0, 297.053745, 190.661721)" fill="none" stroke-linejoin="miter" d="M 0.00209797 5.001257 L 82.4657 5.001257 " stroke="#ffffff" stroke-width="10" stroke-opacity="1" stroke-miterlimit="4"/><path stroke-linecap="butt" transform="matrix(0.746252, 0, 0, 0.75, 73.510701, 195.467668)" fill="none" stroke-linejoin="miter" d="M 0.00136345 5.001443 L 84.433715 5.001443 " stroke="#ffffff" stroke-width="10" stroke-opacity="1" stroke-miterlimit="4"/><path stroke-linecap="butt" transform="matrix(0, 0.745878, -0.75, 0, 81.006122, 138.873975)" fill="none" stroke-linejoin="miter" d="M 0.00137438 4.997746 L 82.464977 4.997746 " stroke="#ffffff" stroke-width="10" stroke-opacity="1" stroke-miterlimit="4"/></svg>